# xmcd
#
# Track frame offsets: 
#        150
#        14190
#        31212
#        50525
#        68480
#        83830
#        97820
#        115585
#        130370
#        146310
#        167715
#        185907
#        199142
#        215237
#        234370
#
# Disc length: 3388 seconds
#
# Revision: 2
# Processed by: cddbd v1.4PL0 Copyright (c) Steve Scherf et al.
# Submitted via: ExactAudioCopy v0.95a3
#
DISCID=d20d3a0f
DTITLE=Various Artist - The Brazilian Samba Album
DYEAR=1999
DGENRE=Samba
TTITLE0=Estacao Primeira Da Mangueira - Lenda Do Abaete
TTITLE1=Portela - O Mundo Melhor De Pixinguinha
TTITLE2=Portela - Macunaima
TTITLE3=Academicos Do Salgueiro - O Segredo Das Minas Do Rei Salomao
TTITLE4=Beija Flor - Sonhar Com Rei Da Leao
TTITLE5=Estacao Primeira Da Mangueira - No Reino Da Mea Do Ouro
TTITLE6=Beija Flor - Vovo E O Rei Da Saturnalia Na Corte Egipciana
TTITLE7=Uniao Da Ilha Do Governador - Domingo
TTITLE8=Imperio Serrano - Brasil, Berco Dos Emigrantes
TTITLE9=Beija Flor - Criacao Do Mundo Na Tradicao Nago
TTITLE10=Uniao Da Ilha Do Governador - O Amanha
TTITLE11=Portela - Mulher A Brasileria
TTITLE12=Estacao Primeira Da Mangueria - E A Selva Transformou-Se Em O
TTITLE12=uro
TTITLE13=Beija Flor - Uma Visagem Ao Sol Da Meia Noite
TTITLE14=Uniao Da Ilha Do Governador - Bom, Bonito E Barato
EXTD=
EXTT0=
EXTT1=
EXTT2=
EXTT3=
EXTT4=
EXTT5=
EXTT6=
EXTT7=
EXTT8=
EXTT9=
EXTT10=
EXTT11=
EXTT12=
EXTT13=
EXTT14=
PLAYORDER=
